HIERARCHY
ROOT Hips
{
    OFFSET 0.000000 0.000000 0.000000
    CHANNELS 6 Xposition Yposition Zposition Zrotation Xrotation Yrotation
    JOINT Spine
    {
        OFFSET -0.000000 7.750029 0.000000
        CHANNELS 3 Zrotation Xrotation Yrotation
        JOINT Spine1
        {
            OFFSET -0.000000 19.767460 0.000000
            CHANNELS 3 Zrotation Xrotation Yrotation
            JOINT Neck
            {
                OFFSET -0.000000 19.686279 1.789662
                CHANNELS 3 Zrotation Xrotation Yrotation
                JOINT Head
                {
                    OFFSET -0.000000 13.231757 -1.890251
                    CHANNELS 3 Zrotation Xrotation Yrotation
                    End Site
                    {
                        OFFSET -0.000000 23.628138 0.000000
                    }
                }
            }
            JOINT LeftShoulder
            {
                OFFSET 3.736819 16.910755 -0.280982
                CHANNELS 3 Zrotation Xrotation Yrotation
                JOINT LeftArm
                {
                    OFFSET 13.626117 0.000000 0.000000
                    CHANNELS 3 Zrotation Xrotation Yrotation
                    JOINT LeftForeArm
                    {
                        OFFSET 31.364786 0.000000 0.000000
                        CHANNELS 3 Zrotation Xrotation Yrotation
                        JOINT LeftHand
                        {
                            OFFSET 23.389509 0.000000 0.000000
                            CHANNELS 3 Zrotation Xrotation Yrotation
                            End Site
                            {
                                OFFSET 14.176883 0.000000 0.000000
                            }
                        }
                    }
                }
            }
            JOINT RightShoulder
            {
                OFFSET -3.821718 16.910755 -0.280982
                CHANNELS 3 Zrotation Xrotation Yrotation
                JOINT RightArm
                {
                    OFFSET -13.626117 0.000000 0.000000
                    CHANNELS 3 Zrotation Xrotation Yrotation
                    JOINT RightForeArm
                    {
                        OFFSET -31.364786 0.000000 0.000000
                        CHANNELS 3 Zrotation Xrotation Yrotation
                        JOINT RightHand
                        {
                            OFFSET -23.389509 0.000000 0.000000
                            CHANNELS 3 Zrotation Xrotation Yrotation
                            End Site
                            {
                                OFFSET -14.176883 0.000000 0.000000
                            }
                        }
                    }
                }
            }
        }
    }
    JOINT LeftUpLeg
    {
        OFFSET 9.451255 0.000000 0.000000
        CHANNELS 3 Zrotation Xrotation Yrotation
        JOINT LeftLeg
        {
            OFFSET -0.000000 -41.898624 0.000000
            CHANNELS 3 Zrotation Xrotation Yrotation
            JOINT LeftFoot
            {
                OFFSET -0.000000 -38.481331 0.000000
                CHANNELS 3 Zrotation Xrotation Yrotation
                JOINT LeftToeBase
                {
                    OFFSET -0.000000 -6.143315 14.176883
                    CHANNELS 3 Zrotation Xrotation Yrotation
                    End Site
                    {
                        OFFSET -0.000000 0.000000 3.780502
                    }
                }
            }
        }
    }
    JOINT RightUpLeg
    {
        OFFSET -9.451255 0.000000 0.000000
        CHANNELS 3 Zrotation Xrotation Yrotation
        JOINT RightLeg
        {
            OFFSET -0.000000 -41.898624 0.000000
            CHANNELS 3 Zrotation Xrotation Yrotation
            JOINT RightFoot
            {
                OFFSET -0.000000 -38.481331 0.000000
                CHANNELS 3 Zrotation Xrotation Yrotation
                JOINT RightToeBase
                {
                    OFFSET -0.000000 -6.143315 14.176883
                    CHANNELS 3 Zrotation Xrotation Yrotation
                    End Site
                    {
                        OFFSET -0.000000 0.000000 3.780502
                    }
                }
            }
        }
    }
}
MOTION
Frames:    7
Frame Time:    0.010000
6.360045    89.658287    -6.035515    -0.615111    2.306501    -175.648880    1.021368    -3.496897    0.404434    0.120690    -1.267160    0.374687    -3.387421    31.374643    2.226032    -2.408035    -30.581770    0.842559    10.185061    2.972945    -4.590596    -80.314049    52.458553    -4.042959    11.312977    -15.254592    -23.305197    -10.519903    -12.404239    -6.454088    -9.933928    7.887359    -0.992331    74.736473    50.082851    14.658372    -10.618867    -11.373584    25.274054    4.541009    -8.882446    3.600385    4.715857    6.212970    -6.297290    -1.741677    1.209508    3.532406    -3.987346    -11.397486    12.764818    0.000000    0.000000    0.000000    -5.918475    6.569790    -1.708023    1.109293    3.103067    2.612374    7.258250    -13.597901    -18.683731    0.000000    0.000000    0.000000    
6.340698    89.644157    -6.014259    -0.574581    2.440022    -175.635727    1.027702    -3.463655    0.339926    0.008352    -1.089881    0.308864    -3.179280    31.414162    2.286196    -2.562627    -30.752407    0.869262    10.330792    2.826465    -4.620089    -80.389877    51.658569    -4.169502    10.811894    -14.897659    -23.402946    -10.626439    -12.095960    -6.823071    -9.605435    7.713485    -0.675049    74.509544    50.118095    14.596881    -10.750862    -11.312706    25.284176    5.039803    -8.769866    3.720187    4.782097    6.252836    -6.340401    -1.800302    1.346488    3.459691    -3.929503    -11.524645    12.823260    0.000000    0.000000    0.000000    -5.868371    6.676583    -1.683943    1.091463    3.121724    2.574347    6.830098    -13.638032    -18.577066    0.000000    0.000000    0.000000    
6.306276    89.648102    -5.988866    -0.594187    2.432012    -175.647141    1.005628    -3.530723    0.337463    -0.043547    -0.999790    0.306045    -3.099613    31.260540    2.339406    -2.767329    -30.596296    0.862801    10.325586    2.732047    -4.701103    -80.575203    52.016552    -4.059437    11.287735    -14.926342    -23.424458    -11.771672    -11.984433    -6.562604    -9.540389    7.636311    -0.555881    74.416031    50.176552    14.658877    -10.717317    -11.496502    25.281788    5.474597    -8.949347    3.710160    4.739219    6.153121    -6.346355    -1.836505    1.509108    3.434667    -3.885801    -11.582421    12.873214    0.000000    0.000000    0.000000    -5.915017    6.639096    -1.682854    1.087270    3.143352    2.620863    7.177742    -13.612252    -18.684603    0.000000    0.000000    0.000000    
6.280869    89.643631    -5.957309    -0.609641    2.468798    -175.626587    0.978042    -3.510629    0.341507    -0.030571    -0.963977    0.311320    -3.058167    31.431145    2.297128    -2.908968    -30.835052    0.756882    10.249047    2.673329    -4.803047    -80.482147    52.332645    -4.130191    11.223184    -15.101240    -23.606081    -11.686222    -12.180632    -6.370491    -9.597508    7.574995    -0.493176    74.426201    50.227394    14.716818    -10.546516    -11.609360    25.349922    5.428784    -9.111919    3.375244    4.720183    6.093279    -6.358526    -1.876283    1.651577    3.361893    -3.814484    -11.644543    12.945100    0.000000    0.000000    0.000000    -5.936664    6.674957    -1.619645    1.090925    3.114347    2.481133    7.075833    -13.634086    -18.641066    0.000000    0.000000    0.000000    
6.272110    89.641975    -5.928741    -0.576285    2.546352    -175.592819    0.992103    -3.434573    0.337169    -0.020462    -0.951288    0.307390    -3.141557    31.295330    2.313821    -2.839260    -30.636015    0.799043    10.192561    2.594928    -4.897535    -80.209892    52.725353    -4.410511    10.993141    -15.214015    -23.448456    -11.627131    -12.340152    -6.579019    -9.657718    7.542028    -0.451933    74.411949    50.295532    14.824364    -10.515092    -11.709702    25.209167    5.711350    -9.223495    3.411676    4.770458    6.058184    -6.365216    -1.925632    1.823734    3.301175    -3.725624    -11.735386    12.949233    0.000000    0.000000    0.000000    -5.895485    6.738770    -1.652130    1.074064    3.110084    2.482656    8.584217    -13.890203    -17.914782    0.000000    0.000000    0.000000    
6.253616    89.640465    -5.897451    -0.595321    2.582576    -175.586273    0.962652    -3.400608    0.329406    -0.064980    -0.950212    0.300242    -3.166945    31.342054    2.319875    -2.754556    -30.676916    0.833055    10.187328    2.633873    -4.956080    -80.126701    52.863949    -4.464806    11.047496    -15.146254    -23.618084    -11.515670    -12.235481    -6.726018    -9.625519    7.497948    -0.322256    74.451698    49.861649    14.839707    -10.202322    -11.597920    25.039188    6.183583    -9.173131    3.583270    4.740398    5.985044    -6.235907    -1.950289    2.000970    3.181038    -3.734095    -11.803185    12.952690    0.000000    0.000000    0.000000    -5.926743    6.771023    -1.608236    1.083298    3.086264    2.419230    8.516150    -13.888748    -17.933376    0.000000    0.000000    0.000000    
6.245578    89.638832    -5.857155    -0.593714    2.616237    -175.534683    0.945884    -3.327515    0.304429    -0.094201    -0.977726    0.276414    -3.356782    31.371481    2.330639    -2.375476    -30.730619    0.966011    10.210355    2.599738    -5.005531    -80.115585    53.113796    -4.489750    11.168774    -14.914832    -23.635422    -11.659720    -11.946302    -6.923023    -9.592313    7.469127    -0.255995    74.372437    49.831913    14.906288    -9.980833    -11.770919    24.925320    6.160219    -9.407471    3.582756    4.747081    5.894761    -6.203575    -1.961614    2.168962    2.976970    -3.746022    -11.882022    13.065277    0.000000    0.000000    0.000000    -5.927418    6.792928    -1.663873    1.070503    3.069635    2.482788    8.486161    -13.850776    -17.967255    0.000000    0.000000    0.000000    
